# xmcd CD database file
#
# Track frame offsets:
#	150
#	36362
#	65675
#	112095
#	155627
#	199317
#	249432
#	288140
#
# Disc length: 4406 seconds
#
# Revision: 1
# Processed by: cddbd v1.5.2PL0 Copyright (c) Steve Scherf et al.
# Submitted via: CDex 1.70beta2
#
DISCID=77113408
DTITLE=川嶋哲郎 - Burnin' four nights
DYEAR=2000
DGENRE=Jazz
TTITLE0=like someone in love
TTITLE1=we'll be together again
TTITLE2=take the coltrane
TTITLE3=come sunday
TTITLE4=yakatabue
TTITLE5=tunji
TTITLE6=dancin'
TTITLE7=island lady
EXTD=YEAR: 2000
EXTT0=
EXTT1=
EXTT2=
EXTT3=
EXTT4=
EXTT5=
EXTT6=
EXTT7=
PLAYORDER=
